# Exported from Wings 3D 1.5.3
mtllib ConveyorStraight01.mtl
o Cube4
#48 vertices, 34 faces
v -0.50000000 0.29621647 1.00000000
v -0.50000000 0.29621647 2.00000000
v -0.50000000 0.44622503 1.00000000
v -0.50000000 0.44622503 2.00000000
v 0.50000000 0.29621647 1.00000000
v 0.50000000 0.29621647 2.00000000
v 0.50000000 0.44622503 1.00000000
v 0.50000000 0.44622503 2.00000000
v 0.50000000 0.44622503 1.10949965
v -0.50000000 0.44622503 1.10949965
v -0.50000000 0.44622503 1.88534078
v 0.50000000 0.44622503 1.88534078
v 0.50000000 0.38736589 2.00000000
v 0.50000000 0.38736589 1.00000000
v -0.50000000 0.38736589 2.00000000
v -0.50000000 0.38736589 1.00000000
v 0.50000000 0.38736589 1.88812702
v 0.50000000 0.38736589 1.10551250
v -0.50000000 0.38736589 1.10551250
v -0.50000000 0.38736589 1.88812702
v -0.50000000 0.29621647 1.10702134
v -0.50000000 0.29621647 1.90593091
v -0.41148187 0.29621647 1.00000000
v 0.41333219 0.29621647 1.00000000
v -0.41148187 0.29621647 2.00000000
v 0.41333219 0.29621647 2.00000000
v 0.50000000 0.29621647 1.10702134
v 0.50000000 0.29621647 1.90593091
v -0.41148187 0.29621647 1.90593091
v -0.41148187 0.29621647 1.10702134
v 0.41333219 0.29621647 1.90593091
v 0.41333219 0.29621647 1.10702134
v 0.50000000 -0.17422777 1.00000000
v 0.50000000 -0.17422777 1.10702134
v 0.41333219 -0.17422777 1.10702134
v 0.41333219 -0.17422777 1.00000000
v -0.50000000 -0.17422777 1.10702134
v -0.50000000 -0.17422777 1.00000000
v -0.41148187 -0.17422777 1.00000000
v -0.41148187 -0.17422777 1.10702134
v 0.50000000 -0.17422777 2.00000000
v 0.41333219 -0.17422777 2.00000000
v 0.41333219 -0.17422777 1.90593091
v 0.50000000 -0.17422777 1.90593091
v -0.41148187 -0.17422777 2.00000000
v -0.50000000 -0.17422777 2.00000000
v -0.50000000 -0.17422777 1.90593091
v -0.41148187 -0.17422777 1.90593091
vn 0.0000000e+0 0.0000000e+0 -1.00000000
vn -1.00000000 0.0000000e+0 0.0000000e+0
vn -1.00000000 0.0000000e+0 0.0000000e+0
vn 0.0000000e+0 0.0000000e+0 -1.00000000
vn 0.0000000e+0 0.0000000e+0 1.00000000
vn -1.00000000 0.0000000e+0 0.0000000e+0
vn 0.0000000e+0 0.0000000e+0 1.00000000
vn -1.00000000 0.0000000e+0 0.0000000e+0
vn 0.0000000e+0 0.0000000e+0 -1.00000000
vn 0.0000000e+0 1.00000000 0.0000000e+0
vn -1.00000000 0.0000000e+0 0.0000000e+0
vn 0.0000000e+0 0.0000000e+0 1.00000000
vn 0.0000000e+0 1.00000000 0.0000000e+0
vn -1.00000000 0.0000000e+0 0.0000000e+0
vn 0.0000000e+0 0.0000000e+0 -1.00000000
vn 1.00000000 0.0000000e+0 0.0000000e+0
vn 1.00000000 0.0000000e+0 0.0000000e+0
vn 0.0000000e+0 0.0000000e+0 -1.00000000
vn 0.0000000e+0 0.0000000e+0 1.00000000
vn 1.00000000 0.0000000e+0 0.0000000e+0
vn 0.0000000e+0 0.0000000e+0 1.00000000
vn 1.00000000 0.0000000e+0 0.0000000e+0
vn 0.0000000e+0 0.0000000e+0 -1.00000000
vn 0.0000000e+0 1.00000000 0.0000000e+0
vn 1.00000000 0.0000000e+0 0.0000000e+0
vn 0.0000000e+0 0.0000000e+0 1.00000000
vn 0.0000000e+0 1.00000000 0.0000000e+0
vn 1.00000000 0.0000000e+0 0.0000000e+0
vn 0.0000000e+0 1.00000000 0.0000000e+0
vn 1.00000000 0.0000000e+0 0.0000000e+0
vn 0.0000000e+0 -6.7585662e-2 0.99771348
vn 0.0000000e+0 1.00000000 0.0000000e+0
vn -1.00000000 0.0000000e+0 0.0000000e+0
vn 0.0000000e+0 -6.7585662e-2 0.99771348
vn 0.0000000e+0 1.00000000 0.0000000e+0
vn -1.00000000 0.0000000e+0 0.0000000e+0
vn 0.0000000e+0 -4.7284558e-2 -0.99888146
vn 0.0000000e+0 1.00000000 0.0000000e+0
vn 1.00000000 0.0000000e+0 0.0000000e+0
vn 0.0000000e+0 -4.7284558e-2 -0.99888146
vn 0.0000000e+0 0.0000000e+0 1.00000000
vn 1.00000000 0.0000000e+0 0.0000000e+0
vn 1.00000000 0.0000000e+0 0.0000000e+0
vn 0.0000000e+0 0.0000000e+0 -1.00000000
vn 1.00000000 0.0000000e+0 0.0000000e+0
vn 1.00000000 0.0000000e+0 0.0000000e+0
vn 0.0000000e+0 0.0000000e+0 1.00000000
vn -1.00000000 0.0000000e+0 0.0000000e+0
vn -1.00000000 0.0000000e+0 0.0000000e+0
vn 0.0000000e+0 0.0000000e+0 -1.00000000
vn -1.00000000 0.0000000e+0 0.0000000e+0
vn -1.00000000 0.0000000e+0 0.0000000e+0
vn 1.00000000 0.0000000e+0 0.0000000e+0
vn 1.00000000 0.0000000e+0 0.0000000e+0
vn 0.0000000e+0 -4.7284558e-2 -0.99888146
vn 0.0000000e+0 1.00000000 0.0000000e+0
vn 1.00000000 0.0000000e+0 0.0000000e+0
vn 1.00000000 0.0000000e+0 0.0000000e+0
vn 0.0000000e+0 -6.7585662e-2 0.99771348
vn 0.0000000e+0 1.00000000 0.0000000e+0
vn -1.00000000 0.0000000e+0 0.0000000e+0
vn -1.00000000 0.0000000e+0 0.0000000e+0
vn 0.0000000e+0 -6.7585662e-2 0.99771348
vn 0.0000000e+0 1.00000000 0.0000000e+0
vn -1.00000000 0.0000000e+0 0.0000000e+0
vn -1.00000000 0.0000000e+0 0.0000000e+0
vn 0.0000000e+0 -4.7284558e-2 -0.99888146
vn 0.0000000e+0 1.00000000 0.0000000e+0
vn -1.00000000 0.0000000e+0 0.0000000e+0
vn -1.00000000 0.0000000e+0 0.0000000e+0
vn 0.0000000e+0 0.0000000e+0 1.00000000
vn 0.0000000e+0 -1.00000000 0.0000000e+0
vn -1.00000000 0.0000000e+0 0.0000000e+0
vn -1.00000000 0.0000000e+0 0.0000000e+0
vn -2.5084647e-15 0.0000000e+0 -1.00000000
vn 0.0000000e+0 -1.00000000 0.0000000e+0
vn 0.0000000e+0 0.0000000e+0 -1.00000000
vn 0.0000000e+0 0.0000000e+0 -1.00000000
vn 1.00000000 0.0000000e+0 0.0000000e+0
vn 0.0000000e+0 -1.00000000 0.0000000e+0
vn 0.0000000e+0 0.0000000e+0 -1.00000000
vn -1.00000000 0.0000000e+0 0.0000000e+0
vn 0.0000000e+0 0.0000000e+0 -1.00000000
vn 0.0000000e+0 -1.00000000 0.0000000e+0
vn 0.0000000e+0 0.0000000e+0 1.00000000
vn 0.0000000e+0 0.0000000e+0 1.00000000
vn 1.00000000 0.0000000e+0 0.0000000e+0
vn 0.0000000e+0 -1.00000000 0.0000000e+0
vn 0.0000000e+0 0.0000000e+0 1.00000000
vn 0.0000000e+0 0.0000000e+0 1.00000000
vn -1.00000000 0.0000000e+0 0.0000000e+0
vn 0.0000000e+0 -1.00000000 0.0000000e+0
vn 1.00000000 0.0000000e+0 0.0000000e+0
vn 1.00000000 0.0000000e+0 0.0000000e+0
vn 0.0000000e+0 0.0000000e+0 1.00000000
vn 0.0000000e+0 -1.00000000 0.0000000e+0
vn 1.00000000 0.0000000e+0 0.0000000e+0
vn 2.5620194e-15 0.0000000e+0 -1.00000000
vn 1.00000000 0.0000000e+0 0.0000000e+0
vn 0.0000000e+0 -1.00000000 0.0000000e+0
vn -2.5084647e-15 0.0000000e+0 -1.00000000
vn 1.00000000 0.0000000e+0 0.0000000e+0
vn 0.0000000e+0 -1.00000000 0.0000000e+0
vn 1.00000000 0.0000000e+0 0.0000000e+0
vn 0.0000000e+0 0.0000000e+0 1.00000000
vn 0.0000000e+0 -1.00000000 0.0000000e+0
vn -1.00000000 0.0000000e+0 0.0000000e+0
vn 2.5620194e-15 0.0000000e+0 -1.00000000
vn 0.0000000e+0 -1.00000000 0.0000000e+0
vn 0.0000000e+0 0.0000000e+0 1.00000000
vn -1.00000000 0.0000000e+0 0.0000000e+0
vn 0.0000000e+0 -1.00000000 0.0000000e+0
vn 0.0000000e+0 -1.00000000 0.0000000e+0
vn 1.00000000 0.0000000e+0 0.0000000e+0
vn 0.0000000e+0 0.0000000e+0 -1.00000000
vn 0.0000000e+0 -1.00000000 0.0000000e+0
vn 1.00000000 0.0000000e+0 0.0000000e+0
vn 0.0000000e+0 0.0000000e+0 1.00000000
vn 0.0000000e+0 -1.00000000 0.0000000e+0
vn 0.0000000e+0 0.0000000e+0 1.00000000
vn -1.00000000 0.0000000e+0 0.0000000e+0
vn 0.0000000e+0 -1.00000000 0.0000000e+0
vn -1.00000000 0.0000000e+0 0.0000000e+0
vn 0.0000000e+0 0.0000000e+0 -1.00000000
vn 0.0000000e+0 -1.00000000 0.0000000e+0
vn -1.00000000 0.0000000e+0 0.0000000e+0
vn 0.0000000e+0 0.0000000e+0 1.00000000
vn 0.0000000e+0 -1.00000000 0.0000000e+0
vn -1.00000000 0.0000000e+0 0.0000000e+0
vn 0.0000000e+0 0.0000000e+0 -1.00000000
vn 0.0000000e+0 -1.00000000 0.0000000e+0
vn 0.0000000e+0 0.0000000e+0 -1.00000000
vn 1.00000000 0.0000000e+0 0.0000000e+0
vn 0.0000000e+0 -1.00000000 0.0000000e+0
vn 1.00000000 0.0000000e+0 0.0000000e+0
vn 0.0000000e+0 0.0000000e+0 1.00000000
vn 0.0000000e+0 -1.00000000 0.0000000e+0
vn 0.0000000e+0 0.0000000e+0 1.00000000
vn 1.00000000 0.0000000e+0 0.0000000e+0
vn 0.0000000e+0 -1.00000000 0.0000000e+0
vn 0.0000000e+0 0.0000000e+0 1.00000000
vn -1.00000000 0.0000000e+0 0.0000000e+0
vn 0.0000000e+0 -1.00000000 0.0000000e+0
vn -1.00000000 0.0000000e+0 0.0000000e+0
vn 2.5620194e-15 0.0000000e+0 -1.00000000
vn 0.0000000e+0 -1.00000000 0.0000000e+0
vn 2.5620194e-15 0.0000000e+0 -1.00000000
vn 1.00000000 0.0000000e+0 0.0000000e+0
vn 0.0000000e+0 -1.00000000 0.0000000e+0
vn 0.0000000e+0 0.0000000e+0 1.00000000
vn 1.00000000 0.0000000e+0 0.0000000e+0
vn 0.0000000e+0 -1.00000000 0.0000000e+0
vn 0.0000000e+0 0.0000000e+0 1.00000000
vn -1.00000000 0.0000000e+0 0.0000000e+0
vn 0.0000000e+0 -1.00000000 0.0000000e+0
vn -1.00000000 0.0000000e+0 0.0000000e+0
vn -2.5084647e-15 0.0000000e+0 -1.00000000
vn 0.0000000e+0 -1.00000000 0.0000000e+0
vn -2.5084647e-15 0.0000000e+0 -1.00000000
vn 1.00000000 0.0000000e+0 0.0000000e+0
g Cube4_default
usemtl default
s 1
f 1//3 38//129 37//126 21//70
f 2//7 46//153 45//150 25//86
f 8//28 13//43 17//54 12//39
f 10//34 19//63 18//59 9//31
f 11//36 20//66 15//49 4//14
f 16//50 3//9 7//23 14//44 5//15 24//81 23//77 1//1
f 24//82 36//123 35//121 32//111
f 26//90 42//141 41//138 6//21
f 27//94 34//117 33//114 5//17
f 28//98 44//147 43//145 31//108
f 29//101 48//159 47//157 22//75
f 30//104 40//135 39//133 23//79
s 2
f 3//11 16//52 19//62 10//33
f 6//22 41//139 44//148 28//99
f 8//27 12//38 11//35 4//13
f 9//30 18//58 14//46 7//25
f 18//60 19//64 20//68 17//56
f 21//71 37//127 40//136 30//105
f 23//78 39//132 38//130 1//4
f 31//107 43//144 42//142 26//91
f 34//116 35//119 36//122 33//113
f 46//152 47//155 48//158 45//149
s 3
f 5//16 14//45 18//57 17//53 13//42 6//20 28//97 27//93
f 5//18 33//115 36//124 24//83
f 10//32 9//29 7//24 3//10
f 12//40 17//55 20//67 11//37
f 22//74 47//156 46//154 2//8
f 25//87 45//151 48//160 29//102
f 32//110 35//120 34//118 27//95
f 38//128 39//131 40//134 37//125
f 42//140 43//143 44//146 41//137
s 4
f 29//103 22//76 21//72 30//106 23//80 24//84 32//112 27//96 28//100 31//109 26//92 25//88
s 5
f 2//5 25//85 26//89 6//19 13//41 8//26 4//12 15//47
s 6
f 21//69 22//73 2//6 15//48 20//65 19//61 16//51 1//2
