# Exported from Wings 3D 1.5.3
mtllib ConveyorT01.mtl
o Cube4_copy14
#56 vertices, 40 faces
v -0.50000000 0.29621647 -2.00000000
v -0.50000000 0.29621647 -1.00000000
v -0.50000000 0.44622503 -2.00000000
v -0.50000000 0.44622503 -1.00000000
v 0.50000000 0.29621647 -2.00000000
v 0.50000000 0.29621647 -1.00000000
v 0.50000000 0.44622503 -2.00000000
v 0.50000000 0.44622503 -1.00000000
v 0.50000000 0.44622503 -1.89050035
v -0.50000000 0.44622503 -1.89050035
v -0.50000000 0.44622503 -1.11465922
v 0.50000000 0.44622503 -1.11465922
v 0.50000000 0.38736589 -1.00000000
v 0.50000000 0.38736589 -2.00000000
v -0.50000000 0.38736589 -1.00000000
v -0.50000000 0.38736589 -2.00000000
v 0.50000000 0.38736589 -1.11187298
v 0.50000000 0.38736589 -1.89448750
v -0.50000000 0.38736589 -1.89448750
v -0.50000000 0.38736589 -1.11187298
v -0.50000000 0.29621647 -1.89297866
v -0.50000000 0.29621647 -1.09406909
v -0.41148187 0.29621647 -2.00000000
v 0.41333219 0.29621647 -2.00000000
v -0.41148187 0.29621647 -1.00000000
v 0.41333219 0.29621647 -1.00000000
v 0.50000000 0.29621647 -1.89297866
v 0.50000000 0.29621647 -1.09406909
v -0.41148187 0.29621647 -1.09406909
v -0.41148187 0.29621647 -1.89297866
v 0.41333219 0.29621647 -1.09406909
v 0.41333219 0.29621647 -1.89297866
v 0.50000000 -0.17422777 -2.00000000
v 0.50000000 -0.17422777 -1.89297866
v 0.41333219 -0.17422777 -1.89297866
v 0.41333219 -0.17422777 -2.00000000
v -0.50000000 -0.17422777 -1.89297866
v -0.50000000 -0.17422777 -2.00000000
v -0.41148187 -0.17422777 -2.00000000
v -0.41148187 -0.17422777 -1.89297866
v 0.50000000 -0.17422777 -1.00000000
v 0.41333219 -0.17422777 -1.00000000
v 0.41333219 -0.17422777 -1.09406909
v 0.50000000 -0.17422777 -1.09406909
v -0.41148187 -0.17422777 -1.00000000
v -0.50000000 -0.17422777 -1.00000000
v -0.50000000 -0.17422777 -1.09406909
v -0.41148187 -0.17422777 -1.09406909
v -0.40995307 0.44622503 -2.00000000
v 0.41369594 0.44622503 -2.00000000
v -0.40995307 0.44622503 -1.89050035
v 0.41369594 0.44622503 -1.89050035
v 0.41369594 0.38736589 -1.89448750
v -0.40995307 0.38736589 -1.89448750
v -0.40995307 0.38736589 -2.00000000
v 0.41369594 0.38736589 -2.00000000
vn -1.00000000 0.0000000e+0 0.0000000e+0
vn -1.00000000 0.0000000e+0 0.0000000e+0
vn 0.0000000e+0 0.0000000e+0 -1.00000000
vn 0.0000000e+0 0.0000000e+0 -1.00000000
vn -1.00000000 0.0000000e+0 0.0000000e+0
vn 0.0000000e+0 0.0000000e+0 1.00000000
vn -1.00000000 0.0000000e+0 0.0000000e+0
vn 0.0000000e+0 0.0000000e+0 1.00000000
vn -1.00000000 0.0000000e+0 0.0000000e+0
vn 0.0000000e+0 0.0000000e+0 -1.00000000
vn 0.0000000e+0 1.00000000 0.0000000e+0
vn 0.0000000e+0 1.00000000 0.0000000e+0
vn -1.00000000 0.0000000e+0 0.0000000e+0
vn 0.0000000e+0 0.0000000e+0 1.00000000
vn 1.00000000 0.0000000e+0 0.0000000e+0
vn 1.00000000 0.0000000e+0 0.0000000e+0
vn 0.0000000e+0 0.0000000e+0 -1.00000000
vn 0.0000000e+0 0.0000000e+0 -1.00000000
vn 1.00000000 0.0000000e+0 0.0000000e+0
vn 0.0000000e+0 0.0000000e+0 1.00000000
vn 1.00000000 0.0000000e+0 0.0000000e+0
vn 0.0000000e+0 0.0000000e+0 1.00000000
vn 1.00000000 0.0000000e+0 0.0000000e+0
vn 0.0000000e+0 0.0000000e+0 -1.00000000
vn 0.0000000e+0 1.00000000 0.0000000e+0
vn 0.0000000e+0 1.00000000 0.0000000e+0
vn 1.00000000 0.0000000e+0 0.0000000e+0
vn 0.0000000e+0 0.0000000e+0 1.00000000
vn 1.00000000 0.0000000e+0 0.0000000e+0
vn 0.0000000e+0 1.00000000 0.0000000e+0
vn 0.0000000e+0 -6.7585662e-2 0.99771348
vn -1.00000000 0.0000000e+0 0.0000000e+0
vn 0.0000000e+0 1.00000000 0.0000000e+0
vn 0.0000000e+0 -6.7585662e-2 0.99771348
vn 0.0000000e+0 1.00000000 0.0000000e+0
vn -1.00000000 0.0000000e+0 0.0000000e+0
vn 0.0000000e+0 -4.7284558e-2 -0.99888146
vn 0.0000000e+0 1.00000000 0.0000000e+0
vn 1.00000000 0.0000000e+0 0.0000000e+0
vn 0.0000000e+0 -4.7284558e-2 -0.99888146
vn 1.00000000 0.0000000e+0 0.0000000e+0
vn 1.00000000 0.0000000e+0 0.0000000e+0
vn 0.0000000e+0 0.0000000e+0 1.00000000
vn 1.00000000 0.0000000e+0 0.0000000e+0
vn 1.00000000 0.0000000e+0 0.0000000e+0
vn 0.0000000e+0 0.0000000e+0 -1.00000000
vn 0.0000000e+0 0.0000000e+0 -1.00000000
vn -1.00000000 0.0000000e+0 0.0000000e+0
vn -1.00000000 0.0000000e+0 0.0000000e+0
vn 0.0000000e+0 0.0000000e+0 1.00000000
vn -1.00000000 0.0000000e+0 0.0000000e+0
vn -1.00000000 0.0000000e+0 0.0000000e+0
vn 0.0000000e+0 0.0000000e+0 -1.00000000
vn 0.0000000e+0 0.0000000e+0 -1.00000000
vn 1.00000000 0.0000000e+0 0.0000000e+0
vn 1.00000000 0.0000000e+0 0.0000000e+0
vn 0.0000000e+0 -4.7284558e-2 -0.99888146
vn 0.0000000e+0 1.00000000 6.3841159e-17
vn 1.00000000 0.0000000e+0 0.0000000e+0
vn 1.00000000 0.0000000e+0 0.0000000e+0
vn 0.0000000e+0 1.00000000 6.3841159e-17
vn 0.0000000e+0 -6.7585662e-2 0.99771348
vn -1.00000000 0.0000000e+0 0.0000000e+0
vn -1.00000000 0.0000000e+0 0.0000000e+0
vn 0.0000000e+0 1.00000000 6.3841159e-17
vn 0.0000000e+0 -6.7585662e-2 0.99771348
vn -1.00000000 0.0000000e+0 0.0000000e+0
vn -1.00000000 0.0000000e+0 0.0000000e+0
vn 0.0000000e+0 -4.7284558e-2 -0.99888146
vn 0.0000000e+0 1.00000000 6.3841159e-17
vn -1.00000000 0.0000000e+0 0.0000000e+0
vn -1.00000000 0.0000000e+0 0.0000000e+0
vn 0.0000000e+0 0.0000000e+0 1.00000000
vn 0.0000000e+0 -1.00000000 -2.8769058e-17
vn -1.00000000 0.0000000e+0 0.0000000e+0
vn -1.00000000 0.0000000e+0 0.0000000e+0
vn -2.5084647e-15 0.0000000e+0 -1.00000000
vn 0.0000000e+0 -1.00000000 -2.8769058e-17
vn 0.0000000e+0 0.0000000e+0 -1.00000000
vn 1.00000000 0.0000000e+0 0.0000000e+0
vn 0.0000000e+0 -1.00000000 -2.8769058e-17
vn 0.0000000e+0 0.0000000e+0 -1.00000000
vn -1.00000000 0.0000000e+0 0.0000000e+0
vn 0.0000000e+0 0.0000000e+0 -1.00000000
vn 0.0000000e+0 -1.00000000 -2.8769058e-17
vn 0.0000000e+0 0.0000000e+0 -1.00000000
vn 0.0000000e+0 0.0000000e+0 1.00000000
vn 1.00000000 0.0000000e+0 0.0000000e+0
vn 0.0000000e+0 -1.00000000 -2.8769058e-17
vn 0.0000000e+0 0.0000000e+0 1.00000000
vn 0.0000000e+0 0.0000000e+0 1.00000000
vn -1.00000000 0.0000000e+0 0.0000000e+0
vn 0.0000000e+0 -1.00000000 -2.8769058e-17
vn 0.0000000e+0 0.0000000e+0 1.00000000
vn 1.00000000 0.0000000e+0 0.0000000e+0
vn 1.00000000 0.0000000e+0 0.0000000e+0
vn 0.0000000e+0 0.0000000e+0 1.00000000
vn 0.0000000e+0 -1.00000000 -2.8769058e-17
vn 1.00000000 0.0000000e+0 0.0000000e+0
vn 2.5620194e-15 0.0000000e+0 -1.00000000
vn 1.00000000 0.0000000e+0 0.0000000e+0
vn 0.0000000e+0 -1.00000000 -2.8769058e-17
vn -2.5084647e-15 0.0000000e+0 -1.00000000
vn 1.00000000 0.0000000e+0 0.0000000e+0
vn 0.0000000e+0 -1.00000000 -2.8769058e-17
vn 1.00000000 0.0000000e+0 0.0000000e+0
vn 0.0000000e+0 0.0000000e+0 1.00000000
vn 0.0000000e+0 -1.00000000 -2.8769058e-17
vn -1.00000000 0.0000000e+0 0.0000000e+0
vn 2.5620194e-15 0.0000000e+0 -1.00000000
vn 0.0000000e+0 -1.00000000 -2.8769058e-17
vn 0.0000000e+0 0.0000000e+0 1.00000000
vn -1.00000000 0.0000000e+0 0.0000000e+0
vn 0.0000000e+0 -1.00000000 -2.8769058e-17
vn 0.0000000e+0 -1.00000000 0.0000000e+0
vn 1.00000000 0.0000000e+0 0.0000000e+0
vn 0.0000000e+0 0.0000000e+0 -1.00000000
vn 0.0000000e+0 -1.00000000 0.0000000e+0
vn 1.00000000 0.0000000e+0 0.0000000e+0
vn 0.0000000e+0 0.0000000e+0 1.00000000
vn 0.0000000e+0 -1.00000000 0.0000000e+0
vn 0.0000000e+0 0.0000000e+0 1.00000000
vn -1.00000000 0.0000000e+0 0.0000000e+0
vn 0.0000000e+0 -1.00000000 0.0000000e+0
vn -1.00000000 0.0000000e+0 0.0000000e+0
vn 0.0000000e+0 0.0000000e+0 -1.00000000
vn 0.0000000e+0 -1.00000000 0.0000000e+0
vn -1.00000000 0.0000000e+0 0.0000000e+0
vn 0.0000000e+0 0.0000000e+0 1.00000000
vn 0.0000000e+0 -1.00000000 0.0000000e+0
vn -1.00000000 0.0000000e+0 0.0000000e+0
vn 0.0000000e+0 0.0000000e+0 -1.00000000
vn 0.0000000e+0 -1.00000000 0.0000000e+0
vn 0.0000000e+0 0.0000000e+0 -1.00000000
vn 1.00000000 0.0000000e+0 0.0000000e+0
vn 0.0000000e+0 -1.00000000 0.0000000e+0
vn 1.00000000 0.0000000e+0 0.0000000e+0
vn 0.0000000e+0 0.0000000e+0 1.00000000
vn 0.0000000e+0 -1.00000000 0.0000000e+0
vn 0.0000000e+0 0.0000000e+0 1.00000000
vn 1.00000000 0.0000000e+0 0.0000000e+0
vn 0.0000000e+0 -1.00000000 0.0000000e+0
vn 0.0000000e+0 0.0000000e+0 1.00000000
vn -1.00000000 0.0000000e+0 0.0000000e+0
vn 0.0000000e+0 -1.00000000 0.0000000e+0
vn -1.00000000 0.0000000e+0 0.0000000e+0
vn 2.5620194e-15 0.0000000e+0 -1.00000000
vn 0.0000000e+0 -1.00000000 0.0000000e+0
vn 2.5620194e-15 0.0000000e+0 -1.00000000
vn 1.00000000 0.0000000e+0 0.0000000e+0
vn 0.0000000e+0 -1.00000000 0.0000000e+0
vn 0.0000000e+0 0.0000000e+0 1.00000000
vn 1.00000000 0.0000000e+0 0.0000000e+0
vn 0.0000000e+0 -1.00000000 0.0000000e+0
vn 0.0000000e+0 0.0000000e+0 1.00000000
vn -1.00000000 0.0000000e+0 0.0000000e+0
vn 0.0000000e+0 -1.00000000 0.0000000e+0
vn -1.00000000 0.0000000e+0 0.0000000e+0
vn -2.5084647e-15 0.0000000e+0 -1.00000000
vn 0.0000000e+0 -1.00000000 0.0000000e+0
vn -2.5084647e-15 0.0000000e+0 -1.00000000
vn 1.00000000 0.0000000e+0 0.0000000e+0
vn 0.0000000e+0 0.0000000e+0 -1.00000000
vn 0.0000000e+0 1.00000000 0.0000000e+0
vn 1.00000000 0.0000000e+0 0.0000000e+0
vn 0.0000000e+0 0.0000000e+0 -1.00000000
vn 0.0000000e+0 1.00000000 0.0000000e+0
vn -1.00000000 0.0000000e+0 0.0000000e+0
vn 0.0000000e+0 1.00000000 0.0000000e+0
vn 0.0000000e+0 -6.7585662e-2 0.99771348
vn 1.00000000 0.0000000e+0 0.0000000e+0
vn 0.0000000e+0 1.00000000 0.0000000e+0
vn 0.0000000e+0 -6.7585662e-2 0.99771348
vn -1.00000000 0.0000000e+0 0.0000000e+0
vn 0.0000000e+0 1.00000000 6.3841159e-17
vn 0.0000000e+0 -6.7585662e-2 0.99771348
vn -1.00000000 0.0000000e+0 0.0000000e+0
vn 0.0000000e+0 1.00000000 6.3841159e-17
vn 0.0000000e+0 -6.7585662e-2 0.99771348
vn 1.00000000 0.0000000e+0 0.0000000e+0
vn 0.0000000e+0 1.00000000 6.3841159e-17
vn 0.0000000e+0 0.0000000e+0 -1.00000000
vn 0.0000000e+0 0.0000000e+0 -1.00000000
vn 1.00000000 0.0000000e+0 0.0000000e+0
vn 0.0000000e+0 1.00000000 6.3841159e-17
vn 0.0000000e+0 0.0000000e+0 -1.00000000
vn 0.0000000e+0 0.0000000e+0 -1.00000000
vn -1.00000000 0.0000000e+0 0.0000000e+0
g Cube4_copy14_default
usemtl default
s 1
f 1//2 38//131 37//128 21//72
f 8//27 13//42 17//56 12//39
f 9//29 18//60 14//45 7//23
f 10//34 19//66 54//179 51//170
f 11//36 20//68 15//49 4//13
f 24//83 36//125 35//123 32//113
f 26//91 42//143 41//140 6//20
f 27//96 34//119 33//116 5//16
f 28//100 44//149 43//147 31//110
f 30//106 40//137 39//135 23//80
f 46//154 47//157 48//160 45//151
f 49//163 55//183 16//54 3//10
f 56//188 53//177 52//174 50//168
s 2
f 2//6 46//155 45//152 25//87
f 3//9 16//52 19//64 10//32
f 5//17 33//117 36//126 24//84
f 6//21 41//141 44//150 28//101
f 8//26 12//38 11//35 4//12
f 14//47 56//187 50//166 7//24
f 18//61 53//175 56//185 55//181 54//178 19//65 20//70 17//58
f 29//105 22//78 21//74 30//108 23//81 24//85 32//114 27//98 28//102 31//111 26//93 25//89
f 38//130 39//133 40//136 37//127
s 3
f 2//8 25//90 26//94 6//22 13//43 8//28 4//14 15//50
f 7//25 50//167 52//172 9//30
f 12//40 17//57 20//69 11//37
f 16//53 55//182 56//186 14//46 5//18 24//86 23//82 1//4
f 21//73 37//129 40//138 30//107
f 22//76 47//158 46//156 2//7
f 25//88 45//153 48//162 29//104
f 31//109 43//146 42//144 26//92
f 34//118 35//121 36//124 33//115
f 49//165 51//171 54//180 55//184
s 4
f 5//15 14//44 18//59 17//55 13//41 6//19 28//99 27//95
f 9//31 52//173 53//176 18//62
f 10//33 51//169 49//164 3//11
f 21//71 22//75 2//5 15//48 20//67 19//63 16//51 1//1
f 23//79 39//134 38//132 1//3
f 29//103 48//161 47//159 22//77
f 32//112 35//122 34//120 27//97
f 42//142 43//145 44//148 41//139
