# Exported from Wings 3D 1.5.3
mtllib placeholderWarehouse01ExportTest01.mtl
o Cube1
#22 vertices, 17 faces
v -0.50000000 -0.16774127 -0.50000000
v -0.50000000 -0.16774127 0.50000000
v -0.50000000 0.14296025 -0.50000000
v -0.50000000 0.14296025 0.50000000
v 0.50000000 -0.16774127 -0.50000000
v 0.50000000 -0.16774127 0.50000000
v 0.50000000 0.14296025 -0.50000000
v 0.50000000 0.14296025 0.50000000
v -0.42200000 0.14396025 -0.42200000
v -0.42200000 0.14396025 0.42200000
v 0.42200000 0.14396025 0.42200000
v 0.42200000 0.14396025 -0.42200000
v -0.42200000 0.35079707 -0.42200000
v -0.42200000 0.35079707 0.42200000
v 0.42200000 0.35079707 0.42200000
v 0.42200000 0.35079707 -0.42200000
v 0.0000000e+0 0.35079707 -0.42200000
v 0.0000000e+0 0.35079707 0.42200000
v 0.21100000 0.43993389 -0.42200000
v 0.21100000 0.43993389 0.42200000
v -0.21100000 0.43993389 0.42200000
v -0.21100000 0.43993389 -0.42200000
vn 0.0000000e+0 -1.00000000 0.0000000e+0
vn 0.0000000e+0 0.0000000e+0 -1.00000000
vn -1.00000000 0.0000000e+0 0.0000000e+0
vn 0.0000000e+0 -1.00000000 0.0000000e+0
vn 0.0000000e+0 0.0000000e+0 1.00000000
vn -1.00000000 0.0000000e+0 0.0000000e+0
vn 0.0000000e+0 0.0000000e+0 -1.00000000
vn -1.00000000 0.0000000e+0 0.0000000e+0
vn -1.2819459e-2 0.99991783 0.0000000e+0
vn 0.0000000e+0 0.99991783 -1.2819459e-2
vn 0.0000000e+0 0.0000000e+0 1.00000000
vn -1.00000000 0.0000000e+0 0.0000000e+0
vn -1.2819459e-2 0.99991783 0.0000000e+0
vn 0.0000000e+0 0.99991783 1.2819459e-2
vn 0.0000000e+0 -1.00000000 0.0000000e+0
vn 0.0000000e+0 0.0000000e+0 -1.00000000
vn 1.00000000 0.0000000e+0 0.0000000e+0
vn 0.0000000e+0 -1.00000000 0.0000000e+0
vn 0.0000000e+0 0.0000000e+0 1.00000000
vn 1.00000000 0.0000000e+0 0.0000000e+0
vn 0.0000000e+0 0.0000000e+0 -1.00000000
vn 1.00000000 0.0000000e+0 0.0000000e+0
vn 1.2819459e-2 0.99991783 0.0000000e+0
vn 0.0000000e+0 0.99991783 -1.2819459e-2
vn 0.0000000e+0 0.0000000e+0 1.00000000
vn 1.00000000 0.0000000e+0 0.0000000e+0
vn 0.0000000e+0 0.99991783 1.2819459e-2
vn 1.2819459e-2 0.99991783 0.0000000e+0
vn -1.2819459e-2 0.99991783 0.0000000e+0
vn 0.0000000e+0 0.99991783 -1.2819459e-2
vn -1.00000000 0.0000000e+0 0.0000000e+0
vn -6.5403876e-17 0.0000000e+0 -1.00000000
vn -1.2819459e-2 0.99991783 0.0000000e+0
vn 0.0000000e+0 0.99991783 1.2819459e-2
vn -1.00000000 0.0000000e+0 0.0000000e+0
vn 6.5403876e-17 0.0000000e+0 1.00000000
vn 0.0000000e+0 0.99991783 1.2819459e-2
vn 1.2819459e-2 0.99991783 0.0000000e+0
vn 6.5403876e-17 0.0000000e+0 1.00000000
vn 1.00000000 0.0000000e+0 0.0000000e+0
vn 1.2819459e-2 0.99991783 0.0000000e+0
vn 0.0000000e+0 0.99991783 -1.2819459e-2
vn 1.00000000 0.0000000e+0 0.0000000e+0
vn -6.5403876e-17 0.0000000e+0 -1.00000000
vn -0.38914963 0.92117456 0.0000000e+0
vn -1.00000000 0.0000000e+0 0.0000000e+0
vn -6.5403876e-17 0.0000000e+0 -1.00000000
vn -0.38914963 0.92117456 0.0000000e+0
vn -1.00000000 0.0000000e+0 0.0000000e+0
vn 6.5403876e-17 0.0000000e+0 1.00000000
vn 6.5403876e-17 0.0000000e+0 1.00000000
vn 1.00000000 0.0000000e+0 0.0000000e+0
vn 0.38914963 0.92117456 0.0000000e+0
vn 1.00000000 0.0000000e+0 0.0000000e+0
vn -6.5403876e-17 0.0000000e+0 -1.00000000
vn 0.38914963 0.92117456 0.0000000e+0
vn -6.5403876e-17 0.0000000e+0 -1.00000000
vn -0.38914963 0.92117456 0.0000000e+0
vn 0.38914963 0.92117456 0.0000000e+0
vn 6.5403876e-17 0.0000000e+0 1.00000000
vn -0.38914963 0.92117456 0.0000000e+0
vn 0.38914963 0.92117456 0.0000000e+0
vn -6.5403876e-17 0.0000000e+0 -1.00000000
vn 0.38914963 0.92117456 0.0000000e+0
vn -0.38914963 0.92117456 0.0000000e+0
vn 6.5403876e-17 0.0000000e+0 1.00000000
vn 0.38914963 0.92117456 0.0000000e+0
vn -0.38914963 0.92117456 0.0000000e+0
vn -0.38914963 0.92117456 0.0000000e+0
vn 6.5403876e-17 0.0000000e+0 1.00000000
vn 0.38914963 0.92117456 0.0000000e+0
vn -0.38914963 0.92117456 0.0000000e+0
vn -6.5403876e-17 0.0000000e+0 -1.00000000
vn 0.38914963 0.92117456 0.0000000e+0
g Cube1_default
usemtl default
s 1
f 2//5 6//19 8//25 4//11
f 3//7 7//21 5//16 1//2
f 4//13 10//33 9//29 3//9
f 7//23 12//41 11//38 8//28
f 9//32 13//47 22//73 17//57 19//63 16//55 12//44
f 11//39 15//51 20//66 18//60 21//70 14//50 10//36
s 2
f 2//6 4//12 3//8 1//3
f 3//10 9//30 12//42 7//24
f 5//17 7//22 8//26 6//20
f 8//27 11//37 10//34 4//14
f 12//43 16//54 15//52 11//40
f 14//48 21//69 22//72 13//45
f 17//58 18//61 20//68 19//65
s 3
f 1//1 5//15 6//18 2//4
f 10//35 14//49 13//46 9//31
f 15//53 16//56 19//64 20//67
f 18//62 17//59 22//74 21//71
